<svg xmlns="http://www.w3.org/2000/svg" xmlns:xlink="http://www.w3.org/1999/xlink" viewBox="0 0 720 180" color="#F3F3F3">
  <rect width="720" height="180" rx="24" fill="#090B0D"/>
  <defs>
    <g id="brand" fill="none"><path d="M24-1.5 43.5 9.7v25.1L36 39.1M12 39.1l-7.5-4.3V9.7L24-1.5" stroke="currentColor" stroke-width="2.5" stroke-linecap="round" stroke-linejoin="round"/><path d="M15.5 29.5A12 12 0 1 1 32.5 29.5M24 22.5a3.25 3.25 0 1 0 0-6.5 3.25 3.25 0 0 0 0 6.5Zm0 0-7.2 18.1L24 45l7.2-4.4L24 22.5ZM20.6 34.8h6.8" stroke="currentColor" stroke-width="2.5" stroke-linecap="round" stroke-linejoin="round"/></g>
  </defs>
  <g transform="translate(44 45) scale(1.5)"><use xlink:href="#brand"/></g>
  <g transform="translate(166 45) scale(1.5)" fill="none"><path d="M13.2 31.2a15.5 15.5 0 1 1 21.6 0M17.9 27.6a9.5 9.5 0 1 1 12.2 0" stroke="currentColor" stroke-width="2.5" stroke-linecap="round"/><circle cx="24" cy="20.5" r="2.75" stroke="currentColor" stroke-width="2.5"/><path d="m24 23.25-7 18h14l-7-18ZM20.1 33.2h7.8" stroke="currentColor" stroke-width="2.5" stroke-linecap="round" stroke-linejoin="round"/></g>
  <g transform="translate(278 45) scale(1.5)" fill="none"><path d="M9 16v23a3 3 0 0 0 3 3h24a3 3 0 0 0 3-3V16M9 16l4-10.4h22L39 16H9M11 10.8h26M30.5 22.5v12.2m0-12.2-10 2.2v11.8" stroke="currentColor" stroke-width="2.5" stroke-linecap="round" stroke-linejoin="round"/><ellipse cx="17.7" cy="37" rx="3.3" ry="2.5" fill="currentColor"/><ellipse cx="27.7" cy="34.5" rx="3.3" ry="2.5" fill="currentColor"/></g>
  <g transform="translate(390 45) scale(1.5)" fill="none"><path d="M24 42 7.4 25.8C-1.9 16.6 11.2 4.5 20 12.9l4 3.9 4-3.9c8.8-8.4 21.9 3.7 12.6 12.9L24 42Z" stroke="currentColor" stroke-width="2.5" stroke-linecap="round" stroke-linejoin="round"/></g>
  <g transform="translate(502 45) scale(1.5)" fill="none"><rect x="7" y="10" width="34" height="32" rx="4" stroke="currentColor" stroke-width="2.5"/><path d="M7 18h34M15 6v8M33 6v8" stroke="currentColor" stroke-width="2.5" stroke-linecap="round"/><g fill="currentColor"><circle cx="18" cy="26" r="1.6"/><circle cx="30" cy="26" r="1.6"/><circle cx="18" cy="34" r="1.6"/><circle cx="30" cy="34" r="1.6"/></g></g>
  <g transform="translate(614 45) scale(1.5)" fill="none"><path d="m21 4-1 5a16 16 0 0 0-4.1 1.7l-4.3-2.8-3.7 3.7 2.8 4.3A16 16 0 0 0 9 20l-5 1v6l5 1a16 16 0 0 0 1.7 4.1l-2.8 4.3 3.7 3.7 4.3-2.8A16 16 0 0 0 20 39l1 5h6l1-5a16 16 0 0 0 4.1-1.7l4.3 2.8 3.7-3.7-2.8-4.3A16 16 0 0 0 39 28l5-1v-6l-5-1a16 16 0 0 0-1.7-4.1l2.8-4.3-3.7-3.7-4.3 2.8A16 16 0 0 0 28 9l-1-5h-6Z" stroke="currentColor" stroke-width="2.5" stroke-linejoin="round"/><circle cx="24" cy="24" r="7" stroke="currentColor" stroke-width="2.5"/></g>
</svg>
