<svg xmlns="http://www.w3.org/2000/svg" viewBox="0 0 48 48" fill="none" color="#111">
  <path d="m21 4-1 5a16 16 0 0 0-4.1 1.7l-4.3-2.8-3.7 3.7 2.8 4.3A16 16 0 0 0 9 20l-5 1v6l5 1a16 16 0 0 0 1.7 4.1l-2.8 4.3 3.7 3.7 4.3-2.8A16 16 0 0 0 20 39l1 5h6l1-5a16 16 0 0 0 4.1-1.7l4.3 2.8 3.7-3.7-2.8-4.3A16 16 0 0 0 39 28l5-1v-6l-5-1a16 16 0 0 0-1.7-4.1l2.8-4.3-3.7-3.7-4.3 2.8A16 16 0 0 0 28 9l-1-5h-6Z" stroke="currentColor" stroke-width="2.5" stroke-linejoin="round"/>
  <circle cx="24" cy="24" r="7" stroke="currentColor" stroke-width="2.5"/>
</svg>
